HIERARCHY
ROOT root     
{
	OFFSET 0.0000 0.0000 0.0000
	CHANNELS 6 Xposition Yposition Zposition Zrotation Yrotation Xrotation
	JOINT pelvis   
	{
		OFFSET 0.0000 0.0000 0.0000
		CHANNELS 3 Zrotation Yrotation Xrotation
		JOINT thorax   
		{
			OFFSET 0.0000 23.0750 -5.0000
			CHANNELS 3 Zrotation Yrotation Xrotation
			JOINT rclavicle
			{
				OFFSET 0.0000 28.0009 0.0000
				CHANNELS 3 Zrotation Yrotation Xrotation
				JOINT rhumerus 
				{
					OFFSET -18.5725 5.5939 0.0000
					CHANNELS 3 Zrotation Yrotation Xrotation
					JOINT rradius  
					{
						OFFSET -24.8459 0.0000 0.0000
						CHANNELS 3 Zrotation Yrotation Xrotation
						JOINT rhand    
						{
							OFFSET -24.5477 0.0000 0.0000
							CHANNELS 3 Zrotation Yrotation Xrotation
							End Site
							{
								OFFSET -8.1826 0.0000 0.0000
							}
						}
					}
				}
			}
			JOINT lclavicle
			{
				OFFSET 0.0000 28.0009 0.0000
				CHANNELS 3 Zrotation Yrotation Xrotation
				JOINT lhumerus 
				{
					OFFSET 18.5725 5.5939 0.0000
					CHANNELS 3 Zrotation Yrotation Xrotation
					JOINT lradius  
					{
						OFFSET 24.8459 0.0000 0.0000
						CHANNELS 3 Zrotation Yrotation Xrotation
						JOINT lhand    
						{
							OFFSET 24.5477 0.0000 0.0000
							CHANNELS 3 Zrotation Yrotation Xrotation
							End Site
							{
								OFFSET 8.1826 0.0000 0.0000
							}
						}
					}
				}
			}
			JOINT head     
			{
				OFFSET 0.0000 35.2030 0.0000
				CHANNELS 3 Zrotation Yrotation Xrotation
				End Site
				{
					OFFSET 0.0000 11.7343 0.0000
				}
			}
		}
		JOINT rfemur   
		{
			OFFSET -8.2817 0.0000 0.0000
			CHANNELS 3 Zrotation Yrotation Xrotation
			JOINT rtibia   
			{
				OFFSET 0.0000 -43.3627 0.0000
				CHANNELS 3 Zrotation Yrotation Xrotation
				JOINT rfoot    
				{
					OFFSET 0.0000 -38.2947 0.0000
					CHANNELS 3 Zrotation Yrotation Xrotation
					JOINT rtoes    
					{
						OFFSET 0.0000 0.0000 16.6054
						CHANNELS 3 Zrotation Yrotation Xrotation
						End Site
						{
							OFFSET 0.0000 0.0000 5.5351
						}
					}
				}
			}
		}
		JOINT lfemur   
		{
			OFFSET 8.2817 0.0000 0.0000
			CHANNELS 3 Zrotation Yrotation Xrotation
			JOINT ltibia   
			{
				OFFSET 0.0000 -43.3627 0.0000
				CHANNELS 3 Zrotation Yrotation Xrotation
				JOINT lfoot    
				{
					OFFSET 0.0000 -38.2947 0.0000
					CHANNELS 3 Zrotation Yrotation Xrotation
					JOINT ltoes    
					{
						OFFSET 0.0000 0.0000 16.6054
						CHANNELS 3 Zrotation Yrotation Xrotation
						End Site
						{
							OFFSET 0.0000 0.0000 5.5351
						}
					}
				}
			}
		}
	}
}
MOTION
Frames: 23
Frame Time: .0333333
67.647 70.667 13.295 74.3264 -82.5835 -23.7593 0 -0 0 -3.11014 -7.22258 -5.05652 21.2818 -0.844799 -5.38173e-07 60.3666 14.4111 -36.391 -0 5.34556 -0 -30.176 18.2334 -4.95449 -24.1025 0.919697 2.74585e-06 -48.1983 -19.955 -24.2493 1.52095e-08 -2.88353 -6.04294e-07 35.0348 -6.20665 -1.96077 2.37461 -4.23834 -45.4195 -5.45567 -6.85105 -70.4302 -0 -0 79.1321 -3.53806e-08 -13.6762 -24.4234 5.74548 2.48217e-05 -70.9549 -1.80699 -4.74374 -70.6614 -0 -0 73.719 -2.38437e-05 17.7024 -24.5928 -7.5666 -3.59245e-06 -59.8176 
66.196 71.509 13.236 76.1812 -82.6197 -27.0815 0 -0 0 -3.61451 -6.75795 -5.02075 19.9546 -0.941997 -4.60692e-06 61.2825 15.5369 -34.2999 -0 6.70273 -0 -29.2566 18.747 -4.93417 -23.4295 1.0111 1.53658e-06 -47.8256 -22.5147 -24.44 0 -1.79034 0 34.6009 -7.95282 -2.48073 1.95592 -4.98534 -43.5953 -5.64868 -6.62573 -66.6879 -0 -0 76.3195 -0.000107196 -13.6155 -24.225 5.67586 -4.87014e-06 -70.6651 -1.95173 -4.66248 -66.9428 -0 -0 71.1252 -0.000136696 17.5933 -23.9507 -7.3347 -1.55661e-05 -60.0374 
64.645 72.404 13.173 78.007 -82.6502 -30.5154 0 -0 0 -4.13543 -6.29649 -4.90806 18.6502 -1.14461 7.10367e-07 62.1374 16.5278 -31.2813 -0 8.47573 -0 -28.4438 18.8822 -4.82657 -22.6822 1.23865 -1.23797e-05 -47.3574 -25.4897 -23.88 0 -0.1132 0 34.1683 -9.76839 -3.00884 1.47839 -5.69711 -41.536 -5.78893 -6.45987 -62.6585 -0 -0 73.2246 0.000151644 -13.4826 -23.8676 5.5408 -4.68737e-05 -70.4834 -2.14108 -4.52116 -62.9782 -0 -0 68.3489 -0.000163623 17.3584 -23.049 -6.97711 3.84042e-05 -60.6514 
62.994 73.362 13.103 79.7237 -82.6723 -33.9593 0 -0 0 -4.64759 -5.84524 -4.73526 17.4119 -1.40982 -7.76146e-06 62.8316 17.3072 -27.4554 -0 10.6943 -0 -27.8031 18.5894 -4.63919 -21.9008 1.54316 1.03206e-05 -47.8805 -26.4453 -21.6569 0 -2.97524 0 33.5775 -9.29238 -2.80908 0.946735 -6.34198 -39.2332 -5.87005 -6.37749 -58.3711 -0 -0 69.8487 -1.01707e-06 -13.2272 -23.2074 5.29184 1.34668e-05 -70.6073 -2.36044 -4.29049 -58.7982 -0 -0 65.3936 0.000140312 16.9704 -21.7677 -6.45683 2.08442e-05 -61.8566 
61.246 74.388 13.022 81.2203 -82.7107 -37.2862 0 -0 0 -5.12059 -5.41378 -4.52009 16.2687 -1.71465 -3.74501e-06 63.2549 17.8748 -23.1021 -7.18251e-08 13.2972 -6.16183e-07 -27.3575 17.9174 -4.39449 -21.1419 1.87792 2.10959e-06 -48.3836 -26.912 -18.2362 0 -6.74637 0 33.0819 -8.04823 -2.39386 0.367341 -6.88879 -36.6859 -5.88972 -6.40082 -53.8661 -0 -0 66.1937 0.000109763 -12.8136 -22.0933 4.88924 -2.60673e-05 -71.2456 -2.5847 -3.94399 -54.4499 -0 -0 62.2633 -1.82348e-05 16.417 -19.9849 -5.75012 -5.06036e-06 -63.8139 
59.409 75.486 12.927 82.4271 -82.7624 -40.3973 0 -0 0 -5.53176 -5.00992 -4.28237 15.2444 -2.03016 8.2328e-08 63.3305 18.2702 -18.6322 -8.84101e-08 16.1709 -6.22334e-07 -27.063 16.9919 -4.11782 -20.4449 2.19795 -1.25436e-05 -48.6372 -26.9592 -14.405 0 -11.1059 0 32.6752 -6.53108 -1.91634 -0.24304 -7.31354 -33.8989 -5.85274 -6.5468 -49.1902 -0 -0 62.2727 -3.86271e-05 -12.2212 -20.3719 4.31189 -3.22289e-05 -72.5977 -2.78043 -3.46238 -49.9823 -0 -0 58.9684 5.40461e-05 15.6937 -17.589 -4.85319 -4.69757e-05 -66.5997 
57.493 76.659 12.816 83.2936 -82.8453 -43.221 0 -0 0 -5.86915 -4.6375 -4.03879 14.3527 -2.30593 -1.007e-05 63.0343 18.5118 -14.4485 -0 19.2339 -0 -26.8397 15.9223 -3.82225 -19.8103 2.46758 -8.93135e-07 -48.5618 -26.7258 -10.892 0 -15.6757 0 32.3094 -5.24564 -1.52049 -0.858882 -7.60184 -30.8861 -5.77166 -6.82444 -44.3954 -0 -0 58.1131 -2.15321e-05 -11.451 -17.9099 3.56447 3.71827e-05 -74.7775 -2.91091 -2.83807 -45.4484 -0 -0 55.524 -7.56251e-05 14.8143 -14.4948 -3.7872 -2.75581e-05 -70.1246 
55.512 77.907 12.687 83.7653 -82.9629 -45.667 0 -0 0 -6.11929 -4.30635 -3.80362 13.6086 -2.57317 7.30249e-06 62.3856 18.7116 -10.7375 -0 22.3468 -0 -26.6507 14.7958 -3.523 -19.2477 2.75659 -3.71502e-06 -48.2025 -26.4552 -7.95333 0 -20.1142 0 31.9647 -4.43619 -1.27118 -1.45165 -7.74379 -27.686 -5.65829 -7.23244 -39.5514 -0 -0 53.749 6.37373e-05 -10.5234 -14.6014 2.68112 -4.21342e-05 -77.8219 -2.93455 -2.07747 -40.9117 -0 -0 51.952 -3.42961e-05 13.7989 -10.6403 -2.59648 2.44435e-05 -74.2455 
53.485 79.225 12.54 83.8248 -83.1282 -47.6861 0 -0 0 -6.28006 -4.02014 -3.59548 13.0128 -2.8126 -7.20342e-06 61.4438 18.8841 -7.65795 -0 25.4626 -0 -26.447 13.6595 -3.22418 -18.7316 3.05379 -4.64341e-06 -47.6576 -26.2043 -5.62374 0 -24.2858 0 31.6631 -4.11013 -1.16599 -1.99514 -7.74315 -24.3401 -5.53198 -7.75788 -34.7309 -0 -0 49.2376 -9.54165e-06 -9.46777 -10.386 1.72199 5.10964e-06 -81.6017 -2.82129 -1.20159 -36.4411 -0 -0 48.2853 -3.73525e-06 12.6724 -6.0172 -1.35022 4.92537e-06 -78.6282 
51.431 80.607 12.374 83.4979 -83.3373 -49.2645 0 -0 0 -6.35188 -3.78269 -3.43704 12.5532 -3.01844 -7.75672e-06 60.2804 19.0427 -5.27539 -0 28.5362 -0 -26.2032 12.5348 -2.92834 -18.2381 3.35783 9.42748e-06 -47.0228 -25.9961 -3.854 0 -28.1322 0 31.4397 -4.18107 -1.1773 -2.46797 -7.61005 -20.9068 -5.41003 -8.37606 -30.0236 -0 -0 44.652 2.28604e-06 -8.31387 -5.26269 0.767896 3.76685e-06 -85.8146 -2.55143 -0.246799 -32.1087 -0 -0 44.5661 8.00674e-07 11.4608 -0.668091 -0.1354 -1.80665e-07 -82.8209 
49.377 82.042 12.192 82.8585 -83.587 -50.4339 0 -0 0 -6.3455 -3.59481 -3.35203 12.2183 -3.2024 -1.28168e-05 58.9668 19.2101 -3.57042 -1.9239e-07 31.5251 -6.816e-07 -25.9091 11.4352 -2.63873 -17.7533 3.66864 -1.36867e-05 -46.3663 -25.8353 -2.5769 1.93389e-07 -31.6487 -6.82312e-07 31.3189 -4.5263 -1.26948 -2.85448 -7.36346 -17.4588 -5.30933 -9.05832 -25.5342 -0 -0 40.0922 -3.27575e-07 -7.07949 0.69891 -0.0868007 4.44157e-07 -90.0221 -2.12567 0.734599 -27.9904 -0 -0 40.8444 -5.7563e-06 10.1976 5.29873 0.951685 1.98725e-06 -86.3638 
47.349 83.517 12.001 82.0002 -83.8765 -51.2398 0 -0 0 -6.27439 -3.45661 -3.36848 11.9871 -3.37439 1.13299e-05 57.5659 19.4037 -2.49812 -0 34.3896 -0 -25.5657 10.3698 -2.35885 -17.2641 3.98225 -1.19645e-06 -45.7352 -25.7076 -1.75021 0 -34.8683 0 31.3077 -5.02452 -1.40878 -3.14798 -7.02604 -14.0747 -5.24097 -9.77635 -21.3808 -0 -0 35.6815 3.96377e-06 -5.76735 7.34027 -0.739301 6.06419e-07 -93.6979 -1.56509 1.67518 -24.1708 -0 -0 37.189 1.87349e-05 8.9261 11.697 1.8238 2.01314e-05 -88.82 
45.375 85.017 11.805 81.0617 -84.1764 -51.7747 0 -0 0 -6.15826 -3.36598 -3.50985 11.8389 -3.54717 4.27802e-06 56.1253 19.6463 -1.98975 -0 37.0913 -0 -25.1801 9.34956 -2.09263 -16.7697 4.291 4.90262e-06 -45.1556 -25.5901 -1.34575 2.47941e-07 -37.8461 -7.23217e-07 31.3859 -5.56704 -1.56522 -3.34833 -6.62403 -10.8421 -5.21227 -10.511 -17.6814 -0 -0 31.5664 1.1159e-05 -4.36622 14.3999 -1.0878 1.2589e-06 -96.3204 -0.912896 2.49439 -20.7279 -0 -0 33.6871 6.39591e-06 7.70985 18.257 2.42855 4.70238e-05 -89.8229 
43.48 86.527 11.613 80.1473 -84.4847 -52.1017 0 -0 0 -6.01629 -3.32168 -3.79606 11.7495 -3.73199 1.5613e-05 54.6838 19.9624 -1.97048 -0 39.5952 -0 -24.7623 8.39131 -1.84518 -16.2743 4.58799 2.84055e-05 -44.6318 -25.4656 -1.34401 0 -40.642 0 31.5135 -6.06301 -1.71223 -3.46344 -6.18257 -7.8444 -5.2224 -11.2492 -14.5534 -0 -0 27.9105 -8.76266e-06 -2.87199 21.5123 -1.05388 -4.10925e-06 -97.4387 -0.226218 3.1087 -17.7479 -0 -0 30.4511 3.20198e-05 6.63286 24.6392 2.77553 -1.18969e-05 -89.0999 
41.682 88.032 11.431 79.3947 -84.7773 -52.3459 0 -0 0 -5.86344 -3.3192 -4.21489 11.6983 -3.9281 3.86737e-07 53.261 20.3656 -2.37958 -0 41.8774 -0 -24.3294 7.51674 -1.62259 -15.7918 4.85585 1.19027e-05 -44.1495 -25.3092 -1.74067 3.06356e-07 -43.3264 -7.71281e-07 31.6397 -6.43793 -1.8259 -3.50519 -5.725 -5.1618 -5.26362 -11.9801 -12.0704 -0 -0 24.8651 -1.50767e-05 -1.31424 28.2472 -0.62209 -1.36135e-06 -96.9219 0.436499 3.45539 -15.2832 -0 -0 27.6077 1.09941e-05 5.79643 30.4877 2.94834 2.86937e-05 -86.839 
39.992 89.52 11.26 78.8349 -85.0436 -52.5307 0 -0 0 -5.70797 -3.35632 -4.74886 11.6725 -4.14275 2.53654e-06 51.8575 20.8825 -3.14328 -3.13379e-07 43.9166 -7.77275e-07 -23.9032 6.7489 -1.4302 -15.345 5.09807 2.05678e-05 -43.6819 -25.1313 -2.50967 0 -45.9441 0 31.7148 -6.63453 -1.88649 -3.48753 -5.26982 -2.85887 -5.31657 -12.6777 -10.2726 -0 -0 22.5481 -2.22699e-06 0.198599 34.1937 0.1116 -2.36586e-07 -94.8211 1.02942 3.49355 -13.3847 -0 -0 25.2945 2.09435e-05 5.30791 35.4815 3.08673 -9.96717e-06 -83.2444 
38.41 90.983 11.102 78.4847 -85.2781 -52.6991 0 -0 0 -5.55509 -3.42624 -5.35005 11.6631 -4.36954 2.49275e-06 50.4677 21.5119 -4.21007 -0 45.7075 -0 -23.5061 6.1097 -1.27232 -14.9587 5.31097 3.12615e-06 -43.1916 -24.936 -3.62537 3.74735e-07 -48.535 -8.31192e-07 31.699 -6.61326 -1.87947 -3.42407 -4.83117 -0.982695 -5.36276 -13.3073 -9.14026 -0 -0 21.0039 -1.72911e-05 1.47856 39.0632 0.931894 3.24844e-06 -91.6515 1.52232 3.20973 -12.0531 -0 -0 23.603 4.86142e-05 5.27172 39.4212 3.35323 1.3987e-05 -79.0584 
36.932 92.413 10.958 78.3492 -85.4885 -52.8848 0 -0 0 -5.41071 -3.5225 -5.97729 11.6629 -4.60447 -1.72369e-05 49.0771 22.2463 -5.52809 -0 47.2679 -0 -23.1645 5.61273 -1.15119 -14.6502 5.50419 1.33615e-05 -42.6466 -24.751 -5.04204 0 -51.1203 0 31.5736 -6.35355 -1.79802 -3.32702 -4.41915 0.445106 -5.38758 -13.8274 -8.62924 -0 -0 20.2214 1.60154e-05 2.30951 42.7164 1.56709 1.25322e-05 -87.9179 1.89956 2.61997 -11.2814 -0 -0 22.6017 -1.22281e-05 5.725 42.2169 3.85375 1.51696e-05 -74.6519 
35.55 93.802 10.828 78.494 -85.6442 -53.1872 0 -0 0 -5.28277 -3.63419 -6.57424 11.6545 -4.83434 -1.42111e-05 47.6767 23.0554 -7.05775 -3.76132e-07 48.6307 -8.3244e-07 -22.9061 5.26223 -1.06688 -14.4221 5.68368 -2.2111e-05 -42.0261 -24.5929 -6.71086 4.60689e-07 -53.7056 -9.09924e-07 31.3423 -5.85826 -1.64481 -3.20602 -4.03919 1.42286 -5.39019 -14.2115 -8.65805 -0 -0 20.1294 2.56783e-05 2.52366 45.1635 1.79016 1.19221e-05 -84.329 2.15592 1.7774 -11.0236 -0 -0 22.3005 4.97044e-05 6.62823 43.9067 4.60721 -3.22919e-05 -70.6514 
34.255 95.143 10.714 78.9913 -85.7648 -53.7199 0 -0 0 -5.17891 -3.74976 -7.09249 11.6153 -5.04651 9.68626e-06 46.2654 23.8933 -8.766 -0 49.8497 -0 -22.7623 5.05007 -1.0172 -14.2579 5.85991 9.27224e-06 -41.3246 -24.4879 -8.57688 0 -56.2868 0 31.0312 -5.15657 -1.43245 -3.06878 -3.69347 1.97117 -5.37799 -14.4522 -9.13961 -0 -0 20.6289 -1.26591e-05 2.07166 46.4941 1.50288 -5.99543e-07 -81.2944 2.2942 0.771206 -11.2263 -0 -0 22.666 -4.99121e-06 7.84264 44.6021 5.52447 6.16216e-05 -67.2544 
33.039 96.424 10.615 79.8283 -85.8667 -54.5071 0 -0 0 -5.10088 -3.85749 -7.49191 11.5168 -5.23044 2.5591e-05 44.8467 24.7127 -10.6197 -0 50.9835 -0 -22.7617 4.95812 -0.998597 -14.1342 6.04435 7.99858e-06 -40.5546 -24.4517 -10.5889 5.73193e-07 -58.8429 -1.01636e-06 30.6904 -4.30204 -1.18102 -2.92274 -3.38183 2.13033 -5.35905 -14.5608 -9.98651 -0 -0 21.5986 3.47951e-07 1.03021 46.8317 0.751404 -2.03813e-06 -79.0842 2.32593 -0.287408 -11.8263 -0 -0 23.6204 3.24224e-05 9.18857 44.4933 6.46779 4.0366e-05 -64.8672 
31.891 97.64 10.528 81.0556 -85.9142 -55.6234 0 -0 0 -5.04522 -3.94667 -7.73697 11.335 -5.37798 1.28429e-05 43.4314 25.4603 -12.5948 -0 52.0906 -0 -22.9343 4.96154 -1.00712 -14.0188 6.24604 -2.25418e-05 -39.7348 -24.4924 -12.7005 4.54308e-07 -61.3548 -7.65841e-07 30.3728 -3.36717 -0.9142 -2.77236 -3.10158 1.95648 -5.33994 -14.5748 -11.1116 -0 -0 22.9199 4.39546e-06 -0.404398 46.3059 -0.292401 3.45184e-06 -77.5644 2.26932 -1.25086 -12.7589 -0 -0 25.0737 -3.14434e-05 10.4249 43.7554 7.2514 4.34531e-06 -63.1786 
30.801 98.783 10.451 82.5829 -85.9484 -57.0131 0 -0 0 -5.00058 -4.00896 -7.80724 11.0582 -5.48816 -3.67178e-06 42.0178 26.0925 -14.6541 -0 53.2203 -0 -23.3083 5.02913 -1.03789 -13.8837 6.46727 1.82574e-05 -38.886 -24.6037 -14.8796 5.1096e-07 -63.8023 -8.20872e-07 30.1426 -2.42987 -0.654405 -2.62291 -2.84982 1.52235 -5.31766 -14.5299 -12.4257 -0 -0 24.4406 -8.6222e-06 -2.00713 45.0767 -1.42152 -4.11109e-06 -76.551 2.14683 -2.01552 -13.942 -0 -0 26.8778 -8.67019e-05 11.3965 42.6214 7.77268 -8.83501e-06 -62.1904 
